# xmcd CD database file
#
# Track frame offsets:
#	300
#	16800
#	49258
#	74643
#	93618
#	119803
#	143128
#	167730
#	195330
#	216555
#	236580
#	262390
#
# Disc length: 3815 seconds
#
# Revision: 0
# Processed by: cddbd v1.5.2PL0 Copyright (c) Steve Scherf et al.
# Submitted via: CDex 1.78
#
DISCID=c20ee30c
DTITLE=Hot and Blue Jazz Band - Meerane 2016
DYEAR=2016
DGENRE=Jazz
TTITLE0=Panama
TTITLE1=Beale Street Blues
TTITLE2=Louisiana
TTITLE3=The Memphis Blues
TTITLE4=How Can You Face Me?
TTITLE5=I've Found A New Baby
TTITLE6=Black And Tan Fantasy
TTITLE7=Good Time Flat Blues
TTITLE8=Careless Love (Loveless Love)
TTITLE9=Pass Out Lightly
TTITLE10=Saint Louis Blues
TTITLE11=When Erastus Plays His Old Kazzoo
EXTD=YEAR: 2016
EXTT0=
EXTT1=
EXTT2=
EXTT3=
EXTT4=
EXTT5=
EXTT6=
EXTT7=
EXTT8=
EXTT9=
EXTT10=
EXTT11=
PLAYORDER=
